<svg xmlns="http://www.w3.org/2000/svg" xmlns:xlink="http://www.w3.org/1999/xlink" contentStyleType="text/css" height="1105px" preserveAspectRatio="none" style="width:647px;height:1105px;background:#FFFFFF;" version="1.1" viewBox="0 0 647 1105" width="647px" zoomAndPan="magnify"><defs/><g><!--class Apparel--><g id="elem_Apparel"><rect codeLine="2" fill="#F1F1F1" height="259.8594" id="Apparel" rx="2.5" ry="2.5" style="stroke:#181818;stroke-width:0.5;" width="243.3965" x="58.5" y="839"/><ellipse cx="148.854" cy="855" fill="#ADD1B2" rx="11" ry="11" style="stroke:#181818;stroke-width:1;"/><path d="M151.8228,860.6406 Q151.2446,860.9375 150.604,861.0781 Q149.9634,861.2344 149.2603,861.2344 Q146.7603,861.2344 145.4321,859.5938 Q144.1196,857.9375 144.1196,854.8125 Q144.1196,851.6875 145.4321,850.0313 Q146.7603,848.375 149.2603,848.375 Q149.9634,848.375 150.604,848.5313 Q151.2603,848.6875 151.8228,848.9844 L151.8228,851.7031 Q151.1978,851.125 150.604,850.8594 Q150.0103,850.5781 149.3853,850.5781 Q148.0415,850.5781 147.354,851.6563 Q146.6665,852.7188 146.6665,854.8125 Q146.6665,856.9063 147.354,857.9844 Q148.0415,859.0469 149.3853,859.0469 Q150.0103,859.0469 150.604,858.7813 Q151.1978,858.5 151.8228,857.9219 L151.8228,860.6406 Z " fill="#000000"/><text fill="#000000" font-family="sans-serif" font-size="14" lengthAdjust="spacing" textLength="54.1885" x="169.354" y="859.8467">Apparel</text><line style="stroke:#181818;stroke-width:0.5;" x1="59.5" x2="300.8965" y1="871" y2="871"/><rect fill="none" height="6" style="stroke:#C82930;stroke-width:1;" width="6" x="66.5" y="881.6484"/><text fill="#000000" font-family="sans-serif" font-size="14" lengthAdjust="spacing" textLength="105.1025" x="78.5" y="887.9951">product: String</text><rect fill="none" height="6" style="stroke:#C82930;stroke-width:1;" width="6" x="66.5" y="897.9453"/><text fill="#000000" font-family="sans-serif" font-size="14" lengthAdjust="spacing" textLength="85.7842" x="78.5" y="904.292">quantity: int</text><rect fill="none" height="6" style="stroke:#C82930;stroke-width:1;" width="6" x="66.5" y="914.2422"/><text fill="#000000" font-family="sans-serif" font-size="14" lengthAdjust="spacing" textLength="78.0938" x="78.5" y="920.5889">size: String</text><rect fill="none" height="6" style="stroke:#C82930;stroke-width:1;" width="6" x="66.5" y="930.5391"/><text fill="#000000" font-family="sans-serif" font-size="14" lengthAdjust="spacing" textLength="112.8203" x="78.5" y="936.8857">category: String</text><rect fill="none" height="6" style="stroke:#C82930;stroke-width:1;" width="6" x="66.5" y="946.8359"/><text fill="#000000" font-family="sans-serif" font-size="14" lengthAdjust="spacing" textLength="91.9297" x="78.5" y="953.1826">brand: String</text><rect fill="none" height="6" style="stroke:#C82930;stroke-width:1;" width="6" x="66.5" y="963.1328"/><text fill="#000000" font-family="sans-serif" font-size="14" lengthAdjust="spacing" textLength="91.7246" x="78.5" y="969.4795">price: double</text><line style="stroke:#181818;stroke-width:0.5;" x1="59.5" x2="300.8965" y1="976.7813" y2="976.7813"/><ellipse cx="69.5" cy="990.4297" fill="#84BE84" rx="3" ry="3" style="stroke:#038048;stroke-width:1;"/><text fill="#000000" font-family="sans-serif" font-size="14" lengthAdjust="spacing" textLength="138.5713" x="78.5" y="993.7764">getProduct(): String</text><ellipse cx="69.5" cy="1006.7266" fill="#84BE84" rx="3" ry="3" style="stroke:#038048;stroke-width:1;"/><text fill="#000000" font-family="sans-serif" font-size="14" lengthAdjust="spacing" textLength="121.8301" x="78.5" y="1010.0732">getQuantity(): int</text><ellipse cx="69.5" cy="1023.0234" fill="#84BE84" rx="3" ry="3" style="stroke:#038048;stroke-width:1;"/><text fill="#000000" font-family="sans-serif" font-size="14" lengthAdjust="spacing" textLength="113.5996" x="78.5" y="1026.3701">getSize(): String</text><ellipse cx="69.5" cy="1039.3203" fill="#84BE84" rx="3" ry="3" style="stroke:#038048;stroke-width:1;"/><text fill="#000000" font-family="sans-serif" font-size="14" lengthAdjust="spacing" textLength="148.8115" x="78.5" y="1042.667">getCategory(): String</text><ellipse cx="69.5" cy="1055.6172" fill="#84BE84" rx="3" ry="3" style="stroke:#038048;stroke-width:1;"/><text fill="#000000" font-family="sans-serif" font-size="14" lengthAdjust="spacing" textLength="126.5605" x="78.5" y="1058.9639">getBrand(): String</text><ellipse cx="69.5" cy="1071.9141" fill="#84BE84" rx="3" ry="3" style="stroke:#038048;stroke-width:1;"/><text fill="#000000" font-family="sans-serif" font-size="14" lengthAdjust="spacing" textLength="125.1934" x="78.5" y="1075.2607">getPrice(): double</text><ellipse cx="69.5" cy="1088.2109" fill="#84BE84" rx="3" ry="3" style="stroke:#038048;stroke-width:1;"/><text fill="#000000" font-family="sans-serif" font-size="14" lengthAdjust="spacing" textLength="217.3965" x="78.5" y="1091.5576">setQuantity(quantity: int): void</text></g><!--class Inventory--><g id="elem_Inventory"><rect codeLine="19" fill="#F1F1F1" height="162.0781" id="Inventory" rx="2.5" ry="2.5" style="stroke:#181818;stroke-width:0.5;" width="395.1201" x="245.5" y="600"/><ellipse cx="405.3755" cy="616" fill="#ADD1B2" rx="11" ry="11" style="stroke:#181818;stroke-width:1;"/><path d="M408.3442,621.6406 Q407.7661,621.9375 407.1255,622.0781 Q406.4849,622.2344 405.7817,622.2344 Q403.2817,622.2344 401.9536,620.5938 Q400.6411,618.9375 400.6411,615.8125 Q400.6411,612.6875 401.9536,611.0313 Q403.2817,609.375 405.7817,609.375 Q406.4849,609.375 407.1255,609.5313 Q407.7817,609.6875 408.3442,609.9844 L408.3442,612.7031 Q407.7192,612.125 407.1255,611.8594 Q406.5317,611.5781 405.9067,611.5781 Q404.563,611.5781 403.8755,612.6563 Q403.188,613.7188 403.188,615.8125 Q403.188,617.9063 403.8755,618.9844 Q404.563,620.0469 405.9067,620.0469 Q406.5317,620.0469 407.1255,619.7813 Q407.7192,619.5 408.3442,618.9219 L408.3442,621.6406 Z " fill="#000000"/><text fill="#000000" font-family="sans-serif" font-size="14" lengthAdjust="spacing" textLength="66.8691" x="425.8755" y="620.8467">Inventory</text><line style="stroke:#181818;stroke-width:0.5;" x1="246.5" x2="639.6201" y1="632" y2="632"/><rect fill="none" height="6" style="stroke:#C82930;stroke-width:1;" width="6" x="253.5" y="642.6484"/><text fill="#000000" font-family="sans-serif" font-size="14" lengthAdjust="spacing" textLength="241.5957" x="265.5" y="648.9951">apparelItems: ArrayList&lt;Apparel&gt;</text><line style="stroke:#181818;stroke-width:0.5;" x1="246.5" x2="639.6201" y1="656.2969" y2="656.2969"/><ellipse cx="256.5" cy="669.9453" fill="#84BE84" rx="3" ry="3" style="stroke:#038048;stroke-width:1;"/><text fill="#000000" font-family="sans-serif" font-size="14" lengthAdjust="spacing" textLength="319.3887" x="265.5" y="673.292">Inventory(apparelItems: ArrayList&lt;Apparel&gt;)</text><ellipse cx="256.5" cy="686.2422" fill="#84BE84" rx="3" ry="3" style="stroke:#038048;stroke-width:1;"/><text fill="#000000" font-family="sans-serif" font-size="14" lengthAdjust="spacing" textLength="202.9248" x="265.5" y="689.5889">addItem(item: Apparel): void</text><ellipse cx="256.5" cy="702.5391" fill="#84BE84" rx="3" ry="3" style="stroke:#038048;stroke-width:1;"/><text fill="#000000" font-family="sans-serif" font-size="14" lengthAdjust="spacing" textLength="191.6592" x="265.5" y="705.8857">deleteItem(index: int): void</text><ellipse cx="256.5" cy="718.8359" fill="#84BE84" rx="3" ry="3" style="stroke:#038048;stroke-width:1;"/><text fill="#000000" font-family="sans-serif" font-size="14" lengthAdjust="spacing" textLength="204.9346" x="265.5" y="722.1826">displayApparelItems(): String</text><ellipse cx="256.5" cy="735.1328" fill="#84BE84" rx="3" ry="3" style="stroke:#038048;stroke-width:1;"/><text fill="#000000" font-family="sans-serif" font-size="14" lengthAdjust="spacing" textLength="369.1201" x="265.5" y="738.4795">rewriteCSV(apparelItems: ArrayList&lt;Apparel&gt;): void</text><ellipse cx="256.5" cy="751.4297" fill="#84BE84" rx="3" ry="3" style="stroke:#038048;stroke-width:1;"/><text fill="#000000" font-family="sans-serif" font-size="14" lengthAdjust="spacing" textLength="220.2402" x="265.5" y="754.7764">readCSV(): ArrayList&lt;Apparel&gt;</text></g><!--class guiController--><g id="elem_guiController"><rect codeLine="30" fill="#F1F1F1" height="357.6406" id="guiController" rx="2.5" ry="2.5" style="stroke:#181818;stroke-width:0.5;" width="346.3115" x="7" y="165"/><ellipse cx="130.4946" cy="181" fill="#ADD1B2" rx="11" ry="11" style="stroke:#181818;stroke-width:1;"/><path d="M133.4634,186.6406 Q132.8853,186.9375 132.2446,187.0781 Q131.604,187.2344 130.9009,187.2344 Q128.4009,187.2344 127.0728,185.5938 Q125.7603,183.9375 125.7603,180.8125 Q125.7603,177.6875 127.0728,176.0313 Q128.4009,174.375 130.9009,174.375 Q131.604,174.375 132.2446,174.5313 Q132.9009,174.6875 133.4634,174.9844 L133.4634,177.7031 Q132.8384,177.125 132.2446,176.8594 Q131.6509,176.5781 131.0259,176.5781 Q129.6821,176.5781 128.9946,177.6563 Q128.3071,178.7188 128.3071,180.8125 Q128.3071,182.9063 128.9946,183.9844 Q129.6821,185.0469 131.0259,185.0469 Q131.6509,185.0469 132.2446,184.7813 Q132.8384,184.5 133.4634,183.9219 L133.4634,186.6406 Z " fill="#000000"/><text fill="#000000" font-family="sans-serif" font-size="14" lengthAdjust="spacing" textLength="90.8223" x="150.9946" y="185.8467">guiController</text><line style="stroke:#181818;stroke-width:0.5;" x1="8" x2="352.3115" y1="197" y2="197"/><rect fill="none" height="6" style="stroke:#C82930;stroke-width:1;" width="6" x="15" y="207.6484"/><text fill="#000000" font-family="sans-serif" font-size="14" lengthAdjust="spacing" textLength="241.5957" x="27" y="213.9951">apparelItems: ArrayList&lt;Apparel&gt;</text><rect fill="none" height="6" style="stroke:#C82930;stroke-width:1;" width="6" x="15" y="223.9453"/><text fill="#000000" font-family="sans-serif" font-size="14" lengthAdjust="spacing" textLength="142.666" x="27" y="230.292">inventory: Inventory</text><rect fill="none" height="6" style="stroke:#C82930;stroke-width:1;" width="6" x="15" y="240.2422"/><text fill="#000000" font-family="sans-serif" font-size="14" lengthAdjust="spacing" textLength="160.9248" x="27" y="246.5889">productField: TextField</text><rect fill="none" height="6" style="stroke:#C82930;stroke-width:1;" width="6" x="15" y="256.5391"/><text fill="#000000" font-family="sans-serif" font-size="14" lengthAdjust="spacing" textLength="165.1357" x="27" y="262.8857">quantityField: TextField</text><rect fill="none" height="6" style="stroke:#C82930;stroke-width:1;" width="6" x="15" y="272.8359"/><text fill="#000000" font-family="sans-serif" font-size="14" lengthAdjust="spacing" textLength="133.916" x="27" y="279.1826">sizeField: TextField</text><rect fill="none" height="6" style="stroke:#C82930;stroke-width:1;" width="6" x="15" y="289.1328"/><text fill="#000000" font-family="sans-serif" font-size="14" lengthAdjust="spacing" textLength="168.6426" x="27" y="295.4795">categoryField: TextField</text><rect fill="none" height="6" style="stroke:#C82930;stroke-width:1;" width="6" x="15" y="305.4297"/><text fill="#000000" font-family="sans-serif" font-size="14" lengthAdjust="spacing" textLength="147.752" x="27" y="311.7764">brandField: TextField</text><rect fill="none" height="6" style="stroke:#C82930;stroke-width:1;" width="6" x="15" y="321.7266"/><text fill="#000000" font-family="sans-serif" font-size="14" lengthAdjust="spacing" textLength="141.6133" x="27" y="328.0732">priceField: TextField</text><rect fill="none" height="6" style="stroke:#C82930;stroke-width:1;" width="6" x="15" y="338.0234"/><text fill="#000000" font-family="sans-serif" font-size="14" lengthAdjust="spacing" textLength="218.5518" x="27" y="344.3701">storeInventoryWorth: TextField</text><rect fill="none" height="6" style="stroke:#C82930;stroke-width:1;" width="6" x="15" y="354.3203"/><text fill="#000000" font-family="sans-serif" font-size="14" lengthAdjust="spacing" textLength="227.8555" x="27" y="360.667">tableView: TableView&lt;Apparel&gt;</text><line style="stroke:#181818;stroke-width:0.5;" x1="8" x2="352.3115" y1="367.9688" y2="367.9688"/><ellipse cx="18" cy="381.6172" fill="#84BE84" rx="3" ry="3" style="stroke:#038048;stroke-width:1;"/><text fill="#000000" font-family="sans-serif" font-size="14" lengthAdjust="spacing" textLength="108.0693" x="27" y="384.9639">initialize(): void</text><ellipse cx="18" cy="397.9141" fill="#84BE84" rx="3" ry="3" style="stroke:#038048;stroke-width:1;"/><text fill="#000000" font-family="sans-serif" font-size="14" lengthAdjust="spacing" textLength="168.9775" x="27" y="401.2607">initializeColumns(): void</text><ellipse cx="18" cy="414.2109" fill="#84BE84" rx="3" ry="3" style="stroke:#038048;stroke-width:1;"/><text fill="#000000" font-family="sans-serif" font-size="14" lengthAdjust="spacing" textLength="197.9688" x="27" y="417.5576">handleCreateProduct(): void</text><ellipse cx="18" cy="430.5078" fill="#84BE84" rx="3" ry="3" style="stroke:#038048;stroke-width:1;"/><text fill="#000000" font-family="sans-serif" font-size="14" lengthAdjust="spacing" textLength="245.752" x="27" y="433.8545">updateStoreInventoryWorth(): void</text><ellipse cx="18" cy="446.8047" fill="#84BE84" rx="3" ry="3" style="stroke:#038048;stroke-width:1;"/><text fill="#000000" font-family="sans-serif" font-size="14" lengthAdjust="spacing" textLength="118.1592" x="27" y="450.1514">loadTable(): void</text><ellipse cx="18" cy="463.1016" fill="#84BE84" rx="3" ry="3" style="stroke:#038048;stroke-width:1;"/><text fill="#000000" font-family="sans-serif" font-size="14" lengthAdjust="spacing" textLength="138.0723" x="27" y="466.4482">refreshTable(): void</text><ellipse cx="18" cy="479.3984" fill="#84BE84" rx="3" ry="3" style="stroke:#038048;stroke-width:1;"/><text fill="#000000" font-family="sans-serif" font-size="14" lengthAdjust="spacing" textLength="115.1924" x="27" y="482.7451">clearText(): void</text><ellipse cx="18" cy="495.6953" fill="#84BE84" rx="3" ry="3" style="stroke:#038048;stroke-width:1;"/><text fill="#000000" font-family="sans-serif" font-size="14" lengthAdjust="spacing" textLength="320.3115" x="27" y="499.042">showAlert(title: String, message: String): void</text><ellipse cx="18" cy="511.9922" fill="#84BE84" rx="3" ry="3" style="stroke:#038048;stroke-width:1;"/><text fill="#000000" font-family="sans-serif" font-size="14" lengthAdjust="spacing" textLength="283.0762" x="27" y="515.3389">initializeQuantityChangeColumns(): void</text></g><!--class App--><g id="elem_App"><rect codeLine="53" fill="#F1F1F1" height="80.5938" id="App" rx="2.5" ry="2.5" style="stroke:#181818;stroke-width:0.5;" width="203.085" x="78.5" y="7"/><ellipse cx="162.1172" cy="23" fill="#ADD1B2" rx="11" ry="11" style="stroke:#181818;stroke-width:1;"/><path d="M165.0859,28.6406 Q164.5078,28.9375 163.8672,29.0781 Q163.2266,29.2344 162.5234,29.2344 Q160.0234,29.2344 158.6953,27.5938 Q157.3828,25.9375 157.3828,22.8125 Q157.3828,19.6875 158.6953,18.0313 Q160.0234,16.375 162.5234,16.375 Q163.2266,16.375 163.8672,16.5313 Q164.5234,16.6875 165.0859,16.9844 L165.0859,19.7031 Q164.4609,19.125 163.8672,18.8594 Q163.2734,18.5781 162.6484,18.5781 Q161.3047,18.5781 160.6172,19.6563 Q159.9297,20.7188 159.9297,22.8125 Q159.9297,24.9063 160.6172,25.9844 Q161.3047,27.0469 162.6484,27.0469 Q163.2734,27.0469 163.8672,26.7813 Q164.4609,26.5 165.0859,25.9219 L165.0859,28.6406 Z " fill="#000000"/><text fill="#000000" font-family="sans-serif" font-size="14" lengthAdjust="spacing" textLength="27.3506" x="182.6172" y="27.8467">App</text><line style="stroke:#181818;stroke-width:0.5;" x1="79.5" x2="280.585" y1="39" y2="39"/><line style="stroke:#181818;stroke-width:0.5;" x1="79.5" x2="280.585" y1="47" y2="47"/><ellipse cx="89.5" cy="60.6484" fill="#84BE84" rx="3" ry="3" style="stroke:#038048;stroke-width:1;"/><text fill="#000000" font-family="sans-serif" font-size="14" lengthAdjust="spacing" textLength="170.8096" x="98.5" y="63.9951">start(stage: Stage): void</text><ellipse cx="89.5" cy="76.9453" fill="#84BE84" rx="3" ry="3" style="stroke:#038048;stroke-width:1;"/><text fill="#000000" font-family="sans-serif" font-size="14" lengthAdjust="spacing" textLength="177.085" x="98.5" y="80.292">main(args: String[]): void</text></g><!--reverse link Inventory to Apparel--><g id="link_Inventory_Apparel"><path codeLine="59" d="M361.2672,770.8829 C339.3072,794.7629 322.78,812.73 298.71,838.91 " fill="none" id="Inventory-backto-Apparel" style="stroke:#181818;stroke-width:1;"/><polygon fill="#181818" points="369.39,762.05,362.3843,763.7589,361.2672,770.8829,368.2729,769.1741,369.39,762.05" style="stroke:#181818;stroke-width:1;"/><text fill="#000000" font-family="sans-serif" font-size="13" lengthAdjust="spacing" textLength="59.8584" x="336" y="805.0669">manages</text><text fill="#000000" font-family="sans-serif" font-size="13" lengthAdjust="spacing" textLength="8.271" x="354.2423" y="782.2826">1</text><text fill="#000000" font-family="sans-serif" font-size="13" lengthAdjust="spacing" textLength="36.5625" x="268.5371" y="828.0304">many</text></g><!--reverse link guiController to Inventory--><g id="link_guiController_Inventory"><path codeLine="60" d="M327.3807,532.7283 C348.3607,559.4483 361.64,576.36 379.89,599.61 " fill="none" id="guiController-backto-Inventory" style="stroke:#181818;stroke-width:1;"/><polygon fill="#181818" points="319.97,523.29,320.5293,530.4794,327.3807,532.7283,326.8215,525.5389,319.97,523.29" style="stroke:#181818;stroke-width:1;"/><text fill="#000000" font-family="sans-serif" font-size="13" lengthAdjust="spacing" textLength="29.7832" x="351" y="566.0669">uses</text><text fill="#000000" font-family="sans-serif" font-size="13" lengthAdjust="spacing" textLength="8.271" x="317.2805" y="542.663">1</text><text fill="#000000" font-family="sans-serif" font-size="13" lengthAdjust="spacing" textLength="8.271" x="366.1292" y="589.0403">1</text></g><!--reverse link guiController to Apparel--><g id="link_guiController_Apparel"><path codeLine="61" d="M170.7282,535.0526 C168.1282,608.9726 166.91,683.63 169,762 C169.66,786.88 170.78,813.44 172.05,838.92 " fill="none" id="guiController-backto-Apparel" style="stroke:#181818;stroke-width:1;"/><polygon fill="#181818" points="171.15,523.06,166.9416,528.9157,170.7282,535.0526,174.9366,529.1969,171.15,523.06" style="stroke:#181818;stroke-width:1;"/><text fill="#000000" font-family="sans-serif" font-size="13" lengthAdjust="spacing" textLength="57.2749" x="170" y="685.5669">interacts</text><text fill="#000000" font-family="sans-serif" font-size="13" lengthAdjust="spacing" textLength="8.271" x="162.6473" y="542.424">1</text><text fill="#000000" font-family="sans-serif" font-size="13" lengthAdjust="spacing" textLength="36.5625" x="134.5546" y="828.041">many</text></g><!--reverse link App to guiController--><g id="link_App_guiController"><path codeLine="62" d="M180,100.22 C180,121.02 180,136.12 180,164.86 " fill="none" id="App-backto-guiController" style="stroke:#181818;stroke-width:1;"/><polygon fill="#181818" points="180,88.22,176,94.22,180,100.22,184,94.22,180,88.22" style="stroke:#181818;stroke-width:1;"/><text fill="#000000" font-family="sans-serif" font-size="13" lengthAdjust="spacing" textLength="37.0513" x="181" y="131.0669">starts</text><text fill="#000000" font-family="sans-serif" font-size="13" lengthAdjust="spacing" textLength="8.271" x="171.4017" y="107.7119">1</text><text fill="#000000" font-family="sans-serif" font-size="13" lengthAdjust="spacing" textLength="8.271" x="171.8304" y="154.0634">1</text></g><!--SRC=[bLHDRzGm4BtdLrXxQHRO0zS88Ir1I9Ku51QL0-BWnjF4acC7UzBjWlZlJ1Bdmzv45JaaqRpvUFCyunls4Hwb1eOLi6FJS0kA5Oexb_JloVOdOVGSM6EDQ0lCs0cjrAMt_cgvHecNZ4cDtkRaRuZS2evG6dk9p0-MQn7P6YiB2XUcVL3Gsrwp4l1kA9_k0_SU-k8vTDZ8eWTEH6Gj8FTirh0F7QKruAxZrG41CxSe7sX1Zaz6YkHlajmifRxLJw2HYWTYpzPHRZx8VujGkumThUMNpzBXEtyixttzAJ1zAM3l8xWGdKygwPMDfpoo7Lm4A40OlBI0vw0Xxo9Te_Zbk2Xw9Pg5iwKg-Ud-PN91SWjST57xrSPZHSjMvaQZDKg13LGDaVzIza0jUsMpMUHm5Jv9K3Izt-1v-8rMOWFkjcC36hTa0-wtPGFhjsQh8b67gOVlnc9rxOISXlfUmfcWyJSUDgabIgxyLYqER0PoezfQkmYlYBY2dCuLOR782u-s4OIThfb6VifmqVDBuv5vjE2gDQXGm6tNRcHtbJaVQJ0mfTDIqutrXjNW72ydmrQhuzxdr5rvrNWyfIHbVBtwYIGco8a5lOUYz0bhrbpgbDlIZPH-_0pAV0N5KHhjAjcuPBvBTcztxDNXm7OrrvVTTADdb51J4PU42pAvqtTEah7MRRl6cUcY0CiBT4dNu39Zc20RcdR_0000]--></g></svg>